<svg xmlns="http://www.w3.org/2000/svg" width="640" height="640" viewBox="0 0 640 640" version="1.1"><path d="M 324.324 98.401 C 309.347 103.222, 296.678 121.049, 291.919 144 C 289.348 156.398, 288.874 180.247, 290.876 196.500 C 292.052 206.051, 295.313 224.885, 296.649 229.838 C 297.105 231.531, 295.794 230.587, 291.890 226.410 C 266.909 199.687, 245.579 186.674, 220.690 182.971 C 213.667 181.926, 210.338 181.908, 203.972 182.883 C 184.290 185.896, 173.405 193.358, 169.431 206.562 C 167.389 213.348, 167.607 227.127, 169.887 235.349 C 175.049 253.963, 200.628 276.301, 225.607 284.008 C 229.398 285.178, 233.298 286.442, 234.274 286.818 C 235.588 287.323, 233.517 288.739, 226.274 292.286 C 188.874 310.599, 157.291 351.739, 160.520 377.937 C 163.868 405.096, 187.273 409.690, 224.761 390.546 C 229.568 388.092, 234.963 385.121, 236.750 383.944 C 238.537 382.767, 240 382.054, 240 382.361 C 240 382.667, 237.950 387.008, 235.443 392.006 C 228.784 405.288, 226.732 412.144, 226.615 421.500 C 226.462 433.668, 231.027 439.828, 240.878 440.751 C 249.500 441.559, 267.500 432.310, 267.500 427.072 C 267.500 423.292, 264.567 422.141, 260.731 424.415 C 245.777 433.280, 241.717 434.381, 237.464 430.723 C 234.892 428.510, 234.627 427.681, 234.642 421.890 C 234.673 410.294, 245.805 386.768, 259.259 369.862 C 261.273 367.332, 262.055 365.353, 261.827 363.362 C 261.292 358.684, 257.952 359.106, 250.221 364.828 C 235.910 375.420, 218.221 385.256, 204 390.528 C 198.071 392.726, 194.684 393.329, 187.831 393.404 C 177.657 393.517, 174.937 392.134, 171.181 384.941 C 169.162 381.076, 168.909 379.386, 169.231 371.906 C 169.557 364.324, 170.077 362.322, 173.645 354.906 C 183.520 334.380, 207.322 310.926, 229.763 299.608 C 238.409 295.247, 252.323 291, 257.963 291 C 264.238 291, 267 289.675, 267 286.665 C 267 283.193, 265.077 282, 259.484 282 C 248.495 282, 230.230 277.548, 218.156 271.927 C 199.891 263.423, 183.294 247.943, 178.307 234.761 C 177.230 231.914, 176.663 227.016, 176.598 220 C 176.507 210.252, 176.697 209.165, 179.254 204.815 C 184.412 196.040, 193.615 191.917, 209.593 191.223 C 227.599 190.441, 244.137 196.484, 263 210.739 C 272.999 218.295, 290.775 236.945, 299.468 249 C 303.936 255.196, 304.787 255.963, 307.215 255.985 C 310.759 256.016, 311.076 252.704, 308.483 242.727 C 296.650 197.196, 294.708 158.180, 303.104 134.627 C 310.911 112.724, 327.831 100.295, 338.628 108.530 C 353.432 119.821, 356.264 148.198, 348.317 205.603 C 346.863 216.109, 345.957 225.446, 346.305 226.353 C 347.058 228.316, 351.307 228.540, 352.836 226.697 C 354.241 225.004, 358.680 194.425, 360.123 176.500 C 361.453 159.974, 360.662 135.120, 358.523 126.231 C 353.599 105.767, 338.815 93.737, 324.324 98.401 M 446.397 160.375 C 431.419 166.545, 416.323 177.683, 399.973 194.627 C 378.396 216.986, 357.117 249.624, 339.492 287.389 C 333.829 299.524, 333.487 300.005, 330.058 300.642 C 317.202 303.031, 301.851 311.010, 292.945 319.934 C 274.750 338.165, 282.666 356.064, 306.482 350.540 C 310.229 349.672, 313.455 349.121, 313.651 349.318 C 313.848 349.515, 311.346 357.736, 308.091 367.588 C 300.677 390.026, 295.979 406.221, 287.520 438.500 C 282.050 459.372, 271.304 511.085, 267.507 534.811 C 265.760 545.720, 266.192 548, 270 548 C 272.942 548, 274.224 545.337, 275.666 536.226 C 281.646 498.458, 294.379 442.670, 306.532 401 C 311.335 384.533, 320.758 355.652, 323.989 347.500 C 324.995 344.960, 327.497 343.366, 340.317 337.101 C 348.643 333.032, 360.641 326.557, 366.978 322.712 C 373.315 318.867, 379.943 314.851, 381.707 313.787 L 384.915 311.853 393.390 314.438 C 420.081 322.579, 444.597 341.523, 454.574 361.717 C 457.930 368.507, 458.360 370.226, 458.382 376.936 C 458.413 386.457, 456 392.182, 449.138 398.866 C 443.810 404.055, 439.208 406.567, 428.375 410.196 C 422.098 412.300, 419.804 412.494, 402 412.433 C 382.877 412.367, 382.238 412.295, 368.917 408.755 C 361.447 406.769, 350.197 403.041, 343.917 400.472 C 337.638 397.902, 331.299 395.310, 329.830 394.711 C 326.375 393.302, 323.773 395.244, 324.199 398.914 C 324.463 401.179, 325.893 402.097, 335.728 406.312 C 363.428 418.183, 393.262 423.688, 415.433 421.018 C 439.495 418.121, 456.141 408.598, 463.560 393.487 C 467.587 385.287, 468.145 374.361, 465.017 364.993 C 457.407 342.206, 431.431 319.007, 401.750 308.487 C 397.488 306.977, 394 305.634, 394 305.503 C 394 305.373, 395.707 304.136, 397.794 302.755 C 411.456 293.714, 433.308 273.859, 447.010 258.036 C 466.001 236.106, 480.153 213.806, 483.497 200.540 C 485.697 191.813, 485.466 178.319, 483.002 171.736 C 477.701 157.567, 463.734 153.232, 446.397 160.375 M 452.839 166.866 C 424.744 176.112, 390.842 211.003, 363.803 258.500 C 358.546 267.735, 344 296.586, 344 297.779 C 344 298.221, 351.141 299.146, 359.868 299.835 C 368.596 300.525, 377.346 301.533, 379.312 302.076 C 382.724 303.018, 383.289 302.778, 391.587 296.881 C 419.040 277.371, 444.784 251.033, 462.255 224.585 C 470.495 212.111, 474.619 203.190, 476.040 194.762 C 479.824 172.331, 470.456 161.068, 452.839 166.866 M 334.604 319.505 C 332.072 325.833, 330 331.462, 330 332.014 C 330 332.566, 334.613 330.718, 340.250 327.907 C 351.674 322.211, 371 310.900, 371 309.911 C 371 308.818, 362.209 308, 350.464 308 L 339.208 308 334.604 319.505 M 319.781 312.399 C 308.162 317.178, 298.886 324.175, 293.870 331.946 C 288.486 340.287, 290.823 343.628, 301.415 342.733 C 304.762 342.450, 309.975 341.265, 313 340.101 L 318.500 337.983 323.205 325.742 C 325.793 319.009, 328.203 312.712, 328.562 311.750 C 329.472 309.307, 326.825 309.502, 319.781 312.399" stroke="none" fill="#f7f1e4" fill-rule="evenodd"/></svg>